<svg id="_x33_0" enable-background="new 0 0 64 64" height="512" viewBox="0 0 64 64" width="512" xmlns="http://www.w3.org/2000/svg"><g><path d="m62.953 32.757c.212-1.719-.319-3.443-1.458-4.73-1.139-1.288-2.777-2.027-4.495-2.027-.693 0-1.367.115-2 .338v-7.338c0-.552-.447-1-1-1h-5.34c.291-.827.399-1.721.309-2.624-.275-2.749-2.467-4.99-5.212-5.33-1.714-.209-3.441.318-4.729 1.458-1.289 1.14-2.028 2.778-2.028 4.496 0 .694.115 1.367.338 2h-5.338c-.553 0-1 .448-1 1v9h-8v-8h-8v4h-2v-4h-8v8h-1c-1.654 0-3 1.346-3 3v2c0 1.654 1.346 3 3 3h27v9c0 .553.447 1 1 1h5.34c-.291.827-.399 1.721-.309 2.624.276 2.749 2.468 4.99 5.212 5.329.248.031.496.046.743.046 1.464 0 2.885-.529 3.986-1.504 1.289-1.139 2.028-2.777 2.028-4.495 0-.693-.115-1.367-.338-2h5.338c.553 0 1-.447 1-1v-7.34c.828.291 1.723.397 2.624.309 2.749-.277 4.99-2.468 5.329-5.212zm-55.953 1.243h-3c-.552 0-1-.448-1-1v-2c0-.551.448-1 1-1h3zm0-12h4v4h6v-4h4v6h-14zm24 12h-22v-4h22zm23.604 1.203c-.301-.229-.709-.269-1.049-.099-.34.169-.555.516-.555.896v8h-6c-.38 0-.727.215-.896.556-.169.34-.131.746.099 1.049.522.686.797 1.515.797 2.395 0 1.145-.493 2.237-1.353 2.997-.87.77-1.992 1.116-3.159.972-1.796-.222-3.286-1.746-3.467-3.544-.104-1.024.172-2.026.775-2.82.229-.303.268-.709.099-1.049-.168-.341-.515-.556-.895-.556h-6v-24h6c.38 0 .727-.215.896-.555s.131-.747-.099-1.049c-.522-.688-.797-1.516-.797-2.396 0-1.145.493-2.238 1.353-2.998.871-.77 1.998-1.112 3.159-.97 1.797.222 3.287 1.745 3.467 3.544.104 1.024-.172 2.026-.775 2.82-.229.302-.268.709-.099 1.049.168.34.515.555.895.555h6v8c0 .38.215.727.556.896.34.169.745.131 1.049-.099.686-.522 1.514-.797 2.395-.797 1.145 0 2.237.493 2.997 1.352.771.871 1.115 1.994.972 3.161-.222 1.795-1.746 3.285-3.544 3.466-1.028.109-2.025-.171-2.821-.776z"/><path d="m44.165 24.132c-1.524-.346-3.083.001-4.28.957-1.198.955-1.885 2.381-1.885 3.911h2c0-.918.412-1.774 1.132-2.347.729-.583 1.648-.786 2.588-.57 1.07.244 1.954 1.127 2.198 2.197.396 1.741-.661 3.103-1.912 3.548-1.219.434-2.006 1.508-2.006 2.735v2.437h2v-2.437c0-.371.266-.705.678-.852 2.388-.851 3.76-3.377 3.189-5.877-.418-1.83-1.871-3.283-3.702-3.702z"/><path d="m42 39h2v2h-2z"/><path d="m55 8h2v2h-2z"/><path d="m55 12h2v2h-2z"/><path d="m57 10h2v2h-2z"/><path d="m53 10h2v2h-2z"/><path d="m37 1h2v2h-2z"/><path d="m37 5h2v2h-2z"/><path d="m39 3h2v2h-2z"/><path d="m35 3h2v2h-2z"/><path d="m27 10h2v2h-2z"/><path d="m27 14h2v2h-2z"/><path d="m29 12h2v2h-2z"/><path d="m25 12h2v2h-2z"/><path d="m51 57h2v2h-2z"/><path d="m51 61h2v2h-2z"/><path d="m53 59h2v2h-2z"/><path d="m49 59h2v2h-2z"/><path d="m24 44h2v2h-2z"/><path d="m24 48h2v2h-2z"/><path d="m26 46h2v2h-2z"/><path d="m22 46h2v2h-2z"/><path d="m35 55h2v2h-2z"/><path d="m35 59h2v2h-2z"/><path d="m37 57h2v2h-2z"/><path d="m33 57h2v2h-2z"/><path d="m59 44h2v2h-2z"/><path d="m59 48h2v2h-2z"/><path d="m61 46h2v2h-2z"/><path d="m57 46h2v2h-2z"/></g></svg>